{"title":"Colt Ford Ft. Jason Aldean - Drivin' Around Song [Music Video] 7","uid":9063181,"size":60979142,"categoryP":"video","categoryS":"music_videos","magnet":"?xt=urn:btih:d0331aec0ba8b4cddd64c1ad8bb7105356e0339c&amp;dn=Colt+Ford+Ft.+Jason+Aldean+-+Drivin%27+Around+Song+%5BMusic+Video%5D+7&amp;tr=udp%3A%2F%2Ftracker.openbittorrent.com%3A80&amp;tr=udp%3A%2F%2Fopen.demonii.com%3A1337&amp;tr=udp%3A%2F%2Ftracker.coppersurfer.tk%3A6969&amp;tr=udp%3A%2F%2Fexodus.desync.com%3A6969","seeders":1,"leechers":0,"uploader":"Sbyky","files":1,"time":1382060884,"description":"[IMG]http://cdn.piczend.com/images/cVlCyOIT/1382045402_drivinaroundsong.jpg[/IMG]\n\nGeneral\nComplete name                            : Colt Ford Ft. Jason Aldean - Drivin' Around Song [Music Video] 720p [Sbyky].mp4\nFormat                                   : MPEG-4\nFormat profile                           : Base Media / Version 2\nCodec ID                                 : mp42\nFile size                                : 58.2 MiB\nDuration                                 : 3mn 47s\nOverall bit rate mode                    : Variable\nOverall bit rate                         : 2 148 Kbps\nEncoded date                             : UTC 2013-10-03 04:47:51\nTagged date                              : UTC 2013-10-03 04:47:51\n\nVideo\nID                                       : 1\nFormat                                   : AVC\nFormat/Info                              : Advanced Video Codec\nFormat profile                           : &lt;a class=&quot;__cf_email__&quot; href=&quot;/cdn-cgi/l/email-protection&quot; data-cfemail=&quot;5f173638371f136c716e&quot;&gt;[email&amp;#160;protected]&lt;/a&gt;&lt;script cf-hash='f9e31' type=&quot;text/javascript&quot;&gt;\n/* &lt;![CDATA[ */!function(){try{var t=&quot;currentScript&quot;in document?document.currentScript:function(){for(var t=document.getElementsByTagName(&quot;script&quot;),e=t.length;e--;)if(t[e].getAttribute(&quot;cf-hash&quot;))return t[e]}();if(t&amp;&amp;t.previousSibling){var e,r,n,i,c=t.previousSibling,a=c.getAttribute(&quot;data-cfemail&quot;);if(a){for(e=&quot;&quot;,r=parseInt(a.substr(0,2),16),n=2;a.length-n;n+=2)i=parseInt(a.substr(n,2),16)^r,e+=String.fromCharCode(i);e=document.createTextNode(e),c.parentNode.replaceChild(e,c)}}}catch(u){}}();/* ]]&gt; */&lt;/script&gt;\nFormat settings, CABAC                   : Yes\nFormat settings, ReFrames                : 1 frame\nCodec ID                                 : avc1\nCodec ID/Info                            : Advanced Video Coding\nDuration                                 : 3mn 47s\nBit rate                                 : 1 953 Kbps\nMaximum bit rate                         : 4 505 Kbps\nWidth                                    : 1 280 pixels\nHeight                                   : 720 pixels\nDisplay aspect ratio                     : 16:9\nFrame rate mode                          : Constant\nFrame rate                               : 23.976 fps\nColor space                              : YUV\nChroma subsampling                       : 4:2:0\nBit depth                                : 8 bits\nScan type                                : Progressive\nBits/(Pixel*Frame)                       : 0.088\nStream size                              : 52.9 MiB (91%)\nTagged date                              : UTC 2013-10-03 04:47:55\n\nAudio\nID                                       : 2\nFormat                                   : AAC\nFormat/Info                              : Advanced Audio Codec\nFormat profile                           : LC\nCodec ID                                 : 40\nDuration                                 : 3mn 47s\nBit rate mode                            : Variable\nBit rate                                 : 192 Kbps\nMaximum bit rate                         : 203 Kbps\nChannel(s)                               : 2 channels\nChannel positions                        : Front: L R\nSampling rate                            : 44.1 KHz\nCompression mode                         : Lossy\nStream size                              : 5.20 MiB (9%)\nTitle                                    : IsoMedia File Produced by Google, 5-11-2011\nEncoded date                             : UTC 2013-10-03 04:47:53\nTagged date                              : UTC 2013-10-03 04:47:55\n\nShared By Sbyky\n[IMG]http://cdn.piczend.com/images/X3Ag13N3/1379453786_saythanks.gif[/IMG]\n[IMG]http://cdn.piczend.com/images/gGqhX2S8/1379453780_keepseeding.gif[/IMG]","torrent":{"xt":"urn:btih:d0331aec0ba8b4cddd64c1ad8bb7105356e0339c","amp;dn":"Colt+Ford+Ft.+Jason+Aldean+-+Drivin%27+Around+Song+%5BMusic+Video%5D+7","amp;tr":["udp%3A%2F%2Ftracker.openbittorrent.com%3A80","udp%3A%2F%2Fopen.demonii.com%3A1337","udp%3A%2F%2Ftracker.coppersurfer.tk%3A6969","udp%3A%2F%2Fexodus.desync.com%3A6969"],"infoHash":"d0331aec0ba8b4cddd64c1ad8bb7105356e0339c","infoHashBuffer":{"type":"Buffer","data":[208,51,26,236,11,168,180,205,221,100,193,173,139,183,16,83,86,224,51,156]},"announce":[],"urlList":[]}}